{
    "accessors": {
        "accessor_100": {
            "bufferView": "bufferView_143",
            "byteOffset": 9456,
            "byteStride": 2,
            "componentType": 5120,
            "count": 223,
            "max": [
                127,
                127
            ],
            "min": [
                -115,
                -127
            ],
            "type": "VEC2"
        },
        "accessor_116": {
            "bufferView": "bufferView_142",
            "byteOffset": 3594,
            "byteStride": 0,
            "componentType": 5123,
            "count": 24,
            "type": "SCALAR"
        },
        "accessor_118": {
            "bufferView": "bufferView_143",
            "byteOffset": 9904,
            "byteStride": 12,
            "componentType": 5126,
            "count": 14,
            "max": [
                0,
                16.739999771118164,
                -1.5550000667572021
            ],
            "min": [
                -158.100006103516,
                -31,
                -12.25
            ],
            "type": "VEC3"
        },
        "accessor_120": {
            "bufferView": "bufferView_143",
            "byteOffset": 10072,
            "byteStride": 2,
            "componentType": 5120,
            "count": 14,
            "max": [
                127,
                127
            ],
            "min": [
                0,
                0
            ],
            "type": "VEC2"
        },
        "accessor_136": {
            "bufferView": "bufferView_142",
            "byteOffset": 3642,
            "byteStride": 0,
            "componentType": 5123,
            "count": 774,
            "type": "SCALAR"
        },
        "accessor_138": {
            "bufferView": "bufferView_143",
            "byteOffset": 10100,
            "byteStride": 12,
            "componentType": 5126,
            "count": 266,
            "max": [
                177.14300537109375,
                31.212799072265625,
                18.1299991607666
            ],
            "min": [
                -152.20201110839844,
                -32.54999923706055,
                0.4599999785423279
            ],
            "type": "VEC3"
        },
        "accessor_140": {
            "bufferView": "bufferView_143",
            "byteOffset": 13292,
            "byteStride": 2,
            "componentType": 5120,
            "count": 266,
            "max": [
                127,
                127
            ],
            "min": [
                -127,
                -127
            ],
            "type": "VEC2"
        },
        "accessor_16": {
            "bufferView": "bufferView_142",
            "byteOffset": 0,
            "byteStride": 0,
            "componentType": 5123,
            "count": 336,
            "type": "SCALAR"
        },
        "accessor_18": {
            "bufferView": "bufferView_143",
            "byteOffset": 0,
            "byteStride": 12,
            "componentType": 5126,
            "count": 108,
            "max": [
                183.329010009766,
                41.55149841308594,
                34.55999755859375
            ],
            "min": [
                -155,
                -38.285003662109375,
                -1.399999976158142
            ],
            "type": "VEC3"
        },
        "accessor_20": {
            "bufferView": "bufferView_143",
            "byteOffset": 1296,
            "byteStride": 2,
            "componentType": 5120,
            "count": 108,
            "max": [
                127,
                125
            ],
            "min": [
                -127,
                -125
            ],
            "type": "VEC2"
        },
        "accessor_36": {
            "bufferView": "bufferView_142",
            "byteOffset": 672,
            "byteStride": 0,
            "componentType": 5123,
            "count": 186,
            "type": "SCALAR"
        },
        "accessor_38": {
            "bufferView": "bufferView_143",
            "byteOffset": 1512,
            "byteStride": 12,
            "componentType": 5126,
            "count": 77,
            "max": [
                183.329010009766,
                41.55149841308594,
                18.285001754760742
            ],
            "min": [
                -155,
                -37.095298767089844,
                0.4599999785423279
            ],
            "type": "VEC3"
        },
        "accessor_40": {
            "bufferView": "bufferView_143",
            "byteOffset": 2436,
            "byteStride": 2,
            "componentType": 5120,
            "count": 77,
            "max": [
                11,
                124
            ],
            "min": [
                -11,
                -124
            ],
            "type": "VEC2"
        },
        "accessor_56": {
            "bufferView": "bufferView_142",
            "byteOffset": 1044,
            "byteStride": 0,
            "componentType": 5123,
            "count": 138,
            "type": "SCALAR"
        },
        "accessor_58": {
            "bufferView": "bufferView_143",
            "byteOffset": 2592,
            "byteStride": 12,
            "componentType": 5126,
            "count": 92,
            "max": [
                94.72139739990234,
                31.212799072265625,
                1.0490000247955322
            ],
            "min": [
                -152.20201110839844,
                -15.5,
                1.0490000247955322
            ],
            "type": "VEC3"
        },
        "accessor_60": {
            "bufferView": "bufferView_143",
            "byteOffset": 3696,
            "byteStride": 2,
            "componentType": 5120,
            "count": 92,
            "max": [
                0,
                0
            ],
            "min": [
                0,
                0
            ],
            "type": "VEC2"
        },
        "accessor_76": {
            "bufferView": "bufferView_142",
            "byteOffset": 1320,
            "byteStride": 0,
            "componentType": 5123,
            "count": 405,
            "type": "SCALAR"
        },
        "accessor_78": {
            "bufferView": "bufferView_143",
            "byteOffset": 3880,
            "byteStride": 12,
            "componentType": 5126,
            "count": 207,
            "max": [
                183.519989013672,
                20.770000457763672,
                15.960000038146973
            ],
            "min": [
                -158.100006103516,
                -33.16999816894531,
                -20
            ],
            "type": "VEC3"
        },
        "accessor_80": {
            "bufferView": "bufferView_143",
            "byteOffset": 6364,
            "byteStride": 2,
            "componentType": 5120,
            "count": 207,
            "max": [
                127,
                127
            ],
            "min": [
                -127,
                -127
            ],
            "type": "VEC2"
        },
        "accessor_96": {
            "bufferView": "bufferView_142",
            "byteOffset": 2130,
            "byteStride": 0,
            "componentType": 5123,
            "count": 732,
            "type": "SCALAR"
        },
        "accessor_98": {
            "bufferView": "bufferView_143",
            "byteOffset": 6780,
            "byteStride": 12,
            "componentType": 5126,
            "count": 223,
            "max": [
                183.329010009766,
                41.55149841308594,
                18.285001754760742
            ],
            "min": [
                -155,
                -37.095298767089844,
                -12.559999465942383
            ],
            "type": "VEC3"
        }
    },
    "animations": {},
    "asset": {
        "generator": "collada2gltf@",
        "premultipliedAlpha": true,
        "profile": {
            "api": "WebGL",
            "version": "1.0.2"
        },
        "version": "1.0"
    },
    "bufferViews": {
        "bufferView_142": {
            "buffer": "aircraft-carrier",
            "byteLength": 5192,
            "byteOffset": 0,
            "target": 34963
        },
        "bufferView_143": {
            "buffer": "aircraft-carrier",
            "byteLength": 13824,
            "byteOffset": 5192,
            "target": 34962
        }
    },
    "buffers": {
        "aircraft-carrier": {
            "byteLength": 19016,
            "type": "arraybuffer",
            "uri": "data:application/octet-stream;base64,"
        }
    },
    "materials": {
        "FltDeck-Extrusion-effect": {
            "name": "FltDeck-Extrusion-material",
            "technique": "technique0",
            "values": {
                "ambient": [
                    0.49803900718688965,
                    0.49803900718688965,
                    0.49803900718688965,
                    1
                ],
                "diffuse": [
                    0.49803900718688965,
                    0.49803900718688965,
                    0.49803900718688965,
                    1
                ],
                "emission": [
                    0,
                    0,
                    0,
                    1
                ],
                "shininess": 0,
                "specular": [
                    0,
                    0,
                    0,
                    1
                ]
            }
        },
        "FltDeckBk-PolygonMesh-effect": {
            "name": "FltDeckBk-PolygonMesh-material",
            "technique": "technique0",
            "values": {
                "ambient": [
                    0.3019610047340393,
                    0.3019610047340393,
                    0.3019610047340393,
                    1
                ],
                "diffuse": [
                    0.3019610047340393,
                    0.3019610047340393,
                    0.3019610047340393,
                    1
                ],
                "emission": [
                    0,
                    0,
                    0,
                    1
                ],
                "shininess": 0,
                "specular": [
                    0,
                    0,
                    0,
                    1
                ]
            }
        },
        "LandDeckStripFt-PolygonMesh-effect": {
            "name": "LandDeckStripFt-PolygonMesh-material",
            "technique": "technique0",
            "values": {
                "ambient": [
                    0.9803919792175293,
                    0.9411770105361938,
                    0.9019609689712524,
                    1
                ],
                "diffuse": [
                    0.9803919792175293,
                    0.9411770105361938,
                    0.9019609689712524,
                    1
                ],
                "emission": [
                    0,
                    0,
                    0,
                    1
                ],
                "shininess": 0,
                "specular": [
                    0,
                    0,
                    0,
                    1
                ]
            }
        },
        "PortSide-PolygonMesh-effect": {
            "name": "PortSide-PolygonMesh-material",
            "technique": "technique0",
            "values": {
                "ambient": [
                    0.7450979948043823,
                    0.7450979948043823,
                    0.7450979948043823,
                    1
                ],
                "diffuse": [
                    0.7450979948043823,
                    0.7450979948043823,
                    0.7450979948043823,
                    1
                ],
                "emission": [
                    0,
                    0,
                    0,
                    1
                ],
                "shininess": 0,
                "specular": [
                    0,
                    0,
                    0,
                    1
                ]
            }
        },
        "SideIsl-Skin-effect": {
            "name": "SideIsl-Skin-material",
            "technique": "technique0",
            "values": {
                "ambient": [
                    0.4000000059604645,
                    0.4000000059604645,
                    0.4000000059604645,
                    1
                ],
                "diffuse": [
                    0.4000000059604645,
                    0.4000000059604645,
                    0.4000000059604645,
                    1
                ],
                "emission": [
                    0,
                    0,
                    0,
                    1
                ],
                "shininess": 0,
                "specular": [
                    0,
                    0,
                    0,
                    1
                ]
            }
        },
        "SternDeck-PolygonMesh-effect": {
            "name": "SternDeck-PolygonMesh-material",
            "technique": "technique0",
            "values": {
                "ambient": [
                    0.20000000298023224,
                    0.20000000298023224,
                    0.20000000298023224,
                    1
                ],
                "diffuse": [
                    0.20000000298023224,
                    0.20000000298023224,
                    0.20000000298023224,
                    1
                ],
                "emission": [
                    0,
                    0,
                    0,
                    1
                ],
                "shininess": 0,
                "specular": [
                    0,
                    0,
                    0,
                    1
                ]
            }
        },
        "Track-Revolve-effect": {
            "name": "Track-Revolve-material",
            "technique": "technique0",
            "values": {
                "ambient": [
                    0.09019610285758972,
                    0.09019610285758972,
                    0.09019610285758972,
                    1
                ],
                "diffuse": [
                    0.09019610285758972,
                    0.09019610285758972,
                    0.09019610285758972,
                    1
                ],
                "emission": [
                    0,
                    0,
                    0,
                    1
                ],
                "shininess": 0,
                "specular": [
                    0,
                    0,
                    0,
                    1
                ]
            }
        }
    },
    "meshes": {
        "geometry-ID1": {
            "name": "geometry-ID1",
            "primitives": [
                {
                    "attributes": {
                        "NORMAL": "accessor_20",
                        "POSITION": "accessor_18"
                    },
                    "indices": "accessor_16",
                    "material": "FltDeck-Extrusion-effect",
                    "mode": 4
                }
            ]
        },
        "geometry-ID2": {
            "name": "geometry-ID2",
            "primitives": [
                {
                    "attributes": {
                        "NORMAL": "accessor_40",
                        "POSITION": "accessor_38"
                    },
                    "indices": "accessor_36",
                    "material": "FltDeckBk-PolygonMesh-effect",
                    "mode": 4
                }
            ]
        },
        "geometry-ID3": {
            "name": "geometry-ID3",
            "primitives": [
                {
                    "attributes": {
                        "NORMAL": "accessor_60",
                        "POSITION": "accessor_58"
                    },
                    "indices": "accessor_56",
                    "material": "LandDeckStripFt-PolygonMesh-effect",
                    "mode": 4
                }
            ]
        },
        "geometry-ID4": {
            "name": "geometry-ID4",
            "primitives": [
                {
                    "attributes": {
                        "NORMAL": "accessor_80",
                        "POSITION": "accessor_78"
                    },
                    "indices": "accessor_76",
                    "material": "PortSide-PolygonMesh-effect",
                    "mode": 4
                }
            ]
        },
        "geometry-ID5": {
            "name": "geometry-ID5",
            "primitives": [
                {
                    "attributes": {
                        "NORMAL": "accessor_100",
                        "POSITION": "accessor_98"
                    },
                    "indices": "accessor_96",
                    "material": "SideIsl-Skin-effect",
                    "mode": 4
                }
            ]
        },
        "geometry-ID6": {
            "name": "geometry-ID6",
            "primitives": [
                {
                    "attributes": {
                        "NORMAL": "accessor_120",
                        "POSITION": "accessor_118"
                    },
                    "indices": "accessor_116",
                    "material": "SternDeck-PolygonMesh-effect",
                    "mode": 4
                }
            ]
        },
        "geometry-ID7": {
            "name": "geometry-ID7",
            "primitives": [
                {
                    "attributes": {
                        "NORMAL": "accessor_140",
                        "POSITION": "accessor_138"
                    },
                    "indices": "accessor_136",
                    "material": "Track-Revolve-effect",
                    "mode": 4
                }
            ]
        }
    },
    "nodes": {
        "node_0": {
            "children": [],
            "matrix": [
                1,
                0,
                0,
                0,
                0,
                1,
                0,
                0,
                0,
                0,
                1,
                0,
                0,
                0,
                0,
                1
            ],
            "meshes": [
                "geometry-ID1"
            ],
            "name": ""
        },
        "node_1": {
            "children": [],
            "matrix": [
                1,
                0,
                0,
                0,
                0,
                1,
                0,
                0,
                0,
                0,
                1,
                0,
                0,
                0,
                0,
                1
            ],
            "meshes": [
                "geometry-ID2"
            ],
            "name": ""
        },
        "node_2": {
            "children": [],
            "matrix": [
                1,
                0,
                0,
                0,
                0,
                1,
                0,
                0,
                0,
                0,
                1,
                0,
                0,
                0,
                0,
                1
            ],
            "meshes": [
                "geometry-ID3"
            ],
            "name": ""
        },
        "node_3": {
            "children": [],
            "matrix": [
                1,
                0,
                0,
                0,
                0,
                1,
                0,
                0,
                0,
                0,
                1,
                0,
                0,
                0,
                0,
                1
            ],
            "meshes": [
                "geometry-ID4"
            ],
            "name": ""
        },
        "node_4": {
            "children": [],
            "matrix": [
                1,
                0,
                0,
                0,
                0,
                1,
                0,
                0,
                0,
                0,
                1,
                0,
                0,
                0,
                0,
                1
            ],
            "meshes": [
                "geometry-ID5"
            ],
            "name": ""
        },
        "node_5": {
            "children": [],
            "matrix": [
                1,
                0,
                0,
                0,
                0,
                1,
                0,
                0,
                0,
                0,
                1,
                0,
                0,
                0,
                0,
                1
            ],
            "meshes": [
                "geometry-ID6"
            ],
            "name": ""
        },
        "node_6": {
            "children": [],
            "matrix": [
                1,
                0,
                0,
                0,
                0,
                1,
                0,
                0,
                0,
                0,
                1,
                0,
                0,
                0,
                0,
                1
            ],
            "meshes": [
                "geometry-ID7"
            ],
            "name": ""
        },
        "node_7": {
            "children": [
                "node_0",
                "node_1",
                "node_2",
                "node_3",
                "node_4",
                "node_5",
                "node_6"
            ],
            "matrix": [
                1,
                0,
                0,
                0,
                0,
                0,
                -1,
                0,
                0,
                1,
                0,
                0,
                0,
                0,
                0,
                1
            ],
            "name": "Y_UP_Transform"
        }
    },
    "programs": {
        "program_0": {
            "attributes": [
                "a_normal",
                "a_position"
            ],
            "fragmentShader": "aircraft-carrier0FS",
            "vertexShader": "aircraft-carrier0VS"
        }
    },
    "scene": "defaultScene",
    "scenes": {
        "defaultScene": {
            "nodes": [
                "node_7"
            ]
        }
    },
    "shaders": {
        "aircraft-carrier0FS": {
            "type": 35632,
            "uri": "data:text/plain;base64,"
        },
        "aircraft-carrier0VS": {
            "type": 35633,
            "uri": "data:text/plain;base64,"
        }
    },
    "skins": {},
    "techniques": {
        "technique0": {
            "attributes": {
                "a_normal": "normal",
                "a_position": "position"
            },
            "parameters": {
                "ambient": {
                    "type": 35666
                },
                "diffuse": {
                    "type": 35666
                },
                "emission": {
                    "type": 35666
                },
                "modelViewMatrix": {
                    "semantic": "MODELVIEW",
                    "type": 35676
                },
                "normal": {
                    "semantic": "NORMAL",
                    "type": 35665
                },
                "normalMatrix": {
                    "semantic": "MODELVIEWINVERSETRANSPOSE",
                    "type": 35675
                },
                "position": {
                    "semantic": "POSITION",
                    "type": 35665
                },
                "projectionMatrix": {
                    "semantic": "PROJECTION",
                    "type": 35676
                },
                "shininess": {
                    "type": 5126
                },
                "specular": {
                    "type": 35666
                }
            },
            "program": "program_0",
            "states": {
                "enable": [
                    2929
                ]
            },
            "uniforms": {
                "u_ambient": "ambient",
                "u_diffuse": "diffuse",
                "u_emission": "emission",
                "u_modelViewMatrix": "modelViewMatrix",
                "u_normalMatrix": "normalMatrix",
                "u_projectionMatrix": "projectionMatrix",
                "u_shininess": "shininess",
                "u_specular": "specular"
            }
        }
    }
}