{
  "accessors": [
    {
      "name": "圆锥-Mesh_0_positions",
      "componentType": 5126,
      "count": 66,
      "min": [
        -24.249160766601562,
        -0.20114447176456451,
        -28.596647262573242
      ],
      "max": [
        30.02134895324707,
        89.81097412109375,
        28.466737747192383
      ],
      "type": "VEC3",
      "bufferView": 0,
      "byteOffset": 0
    },
    {
      "name": "圆锥-Mesh_0_normals",
      "componentType": 5126,
      "count": 66,
      "min": [
        -0.9655086398124695,
        -0.2607612609863281,
        -0.9183638691902161
      ],
      "max": [
        0.7811129093170166,
        0.9999998807907104,
        0.918142557144165
      ],
      "type": "VEC3",
      "bufferView": 1,
      "byteOffset": 0
    },
    {
      "name": "圆锥-Mesh_0_texcoords",
      "componentType": 5126,
      "count": 66,
      "min": [
        0,
        0
      ],
      "max": [
        1,
        1
      ],
      "type": "VEC2",
      "bufferView": 2,
      "byteOffset": 0
    },
    {
      "name": "圆锥-Mesh_0_indices",
      "componentType": 5123,
      "count": 180,
      "min": [
        0
      ],
      "max": [
        65
      ],
      "type": "SCALAR",
      "bufferView": 3,
      "byteOffset": 0
    },
    {
      "name": "圆环.1-Mesh_0_positions",
      "componentType": 5126,
      "count": 703,
      "min": [
        -46.471160888671875,
        -0.4640023708343506,
        -46.471160888671875
      ],
      "max": [
        46.471160888671875,
        0.4640023708343506,
        46.471160888671875
      ],
      "type": "VEC3",
      "bufferView": 0,
      "byteOffset": 792
    },
    {
      "name": "圆环.1-Mesh_0_normals",
      "componentType": 5126,
      "count": 703,
      "min": [
        -1,
        -0.9848148226737976,
        -1
      ],
      "max": [
        1,
        0.9848148226737976,
        1
      ],
      "type": "VEC3",
      "bufferView": 1,
      "byteOffset": 792
    },
    {
      "name": "圆环.1-Mesh_0_texcoords",
      "componentType": 5126,
      "count": 703,
      "min": [
        0,
        0
      ],
      "max": [
        1,
        1
      ],
      "type": "VEC2",
      "bufferView": 2,
      "byteOffset": 528
    },
    {
      "name": "圆环.1-Mesh_0_indices",
      "componentType": 5123,
      "count": 3888,
      "min": [
        0
      ],
      "max": [
        702
      ],
      "type": "SCALAR",
      "bufferView": 3,
      "byteOffset": 360
    },
    {
      "name": "圆环-Mesh_0_positions",
      "componentType": 5126,
      "count": 703,
      "min": [
        -30.471160888671875,
        -0.4640023708343506,
        -30.471160888671875
      ],
      "max": [
        30.471160888671875,
        0.4640023708343506,
        30.471160888671875
      ],
      "type": "VEC3",
      "bufferView": 0,
      "byteOffset": 9228
    },
    {
      "name": "圆环-Mesh_0_normals",
      "componentType": 5126,
      "count": 703,
      "min": [
        -1,
        -0.9848147630691528,
        -1
      ],
      "max": [
        1,
        0.9848147630691528,
        1
      ],
      "type": "VEC3",
      "bufferView": 1,
      "byteOffset": 9228
    },
    {
      "name": "圆环-Mesh_0_texcoords",
      "componentType": 5126,
      "count": 703,
      "min": [
        0,
        0
      ],
      "max": [
        1,
        1
      ],
      "type": "VEC2",
      "bufferView": 2,
      "byteOffset": 6152
    },
    {
      "name": "圆环-Mesh_0_indices",
      "componentType": 5123,
      "count": 3888,
      "min": [
        0
      ],
      "max": [
        702
      ],
      "type": "SCALAR",
      "bufferView": 3,
      "byteOffset": 8136
    }
  ],
  "asset": {
    "generator": "obj2gltf",
    "version": "2.0"
  },
  "buffers": [
    {
      "name": "bd",
      "byteLength": 63016,
      "uri": "data:application/octet-stream;base64,"
    }
  ],
  "bufferViews": [
    {
      "name": "bufferView_0",
      "buffer": 0,
      "byteLength": 17664,
      "byteOffset": 0,
      "byteStride": 12,
      "target": 34962
    },
    {
      "name": "bufferView_1",
      "buffer": 0,
      "byteLength": 17664,
      "byteOffset": 17664,
      "byteStride": 12,
      "target": 34962
    },
    {
      "name": "bufferView_2",
      "buffer": 0,
      "byteLength": 11776,
      "byteOffset": 35328,
      "byteStride": 8,
      "target": 34962
    },
    {
      "name": "bufferView_3",
      "buffer": 0,
      "byteLength": 15912,
      "byteOffset": 47104,
      "target": 34963
    }
  ],
  "materials": [
    {
      "name": "材质",
      "pbrMetallicRoughness": {
        "baseColorFactor": [
          0.5,
          0.5,
          0.5,
          1
        ],
        "metallicFactor": 0,
        "roughnessFactor": 1
      },
      "emissiveFactor": [
        0,
        0,
        0
      ],
      "alphaMode": "OPAQUE",
      "doubleSided": false
    },
    {
      "name": "材质.1",
      "pbrMetallicRoughness": {
        "baseColorFactor": [
          0.5,
          0.5,
          0.5,
          1
        ],
        "metallicFactor": 0,
        "roughnessFactor": 1
      },
      "emissiveFactor": [
        0,
        0,
        0
      ],
      "alphaMode": "OPAQUE",
      "doubleSided": false
    }
  ],
  "meshes": [
    {
      "name": "圆锥-Mesh",
      "primitives": [
        {
          "attributes": {
            "POSITION": 0,
            "NORMAL": 1,
            "TEXCOORD_0": 2
          },
          "indices": 3,
          "material": 0,
          "mode": 4
        }
      ]
    },
    {
      "name": "圆环.1-Mesh",
      "primitives": [
        {
          "attributes": {
            "POSITION": 4,
            "NORMAL": 5,
            "TEXCOORD_0": 6
          },
          "indices": 7,
          "material": 1,
          "mode": 4
        }
      ]
    },
    {
      "name": "圆环-Mesh",
      "primitives": [
        {
          "attributes": {
            "POSITION": 8,
            "NORMAL": 9,
            "TEXCOORD_0": 10
          },
          "indices": 11,
          "material": 1,
          "mode": 4
        }
      ]
    }
  ],
  "nodes": [
    {
      "name": "圆锥",
      "mesh": 0
    },
    {
      "name": "圆环.1",
      "mesh": 1
    },
    {
      "name": "圆环",
      "mesh": 2
    }
  ],
  "scene": 0,
  "scenes": [
    {
      "nodes": [
        0,
        1,
        2
      ]
    }
  ]
}
