{
  "accessors": {
    "accessor_102": {
      "bufferView": "bufferView_2",
      "byteOffset": 0,
      "byteStride": 0,
      "componentType": 5123,
      "count": 1056,
      "type": "SCALAR"
    },
    "accessor_104": {
      "bufferView": "bufferView_0",
      "byteOffset": 0,
      "byteStride": 0,
      "componentType": 5126,
      "count": 260,
      "max": [
        0.5040549635887146,
        0.06431350111961365,
        0.23426400125026703
      ],
      "min": [
        -0.5040549635887146,
        -0.06431350111961365,
        0.18821300566196442
      ],
      "type": "VEC3"
    },
    "accessor_106": {
      "bufferView": "bufferView_0",
      "byteOffset": 3120,
      "byteStride": 0,
      "componentType": 5126,
      "count": 260,
      "max": [
        0.9983590245246887,
        0.9994840025901794,
        0.9961829781532288
      ],
      "min": [
        -0.9983590245246887,
        -0.9994840025901794,
        -0.9970049858093262
      ],
      "type": "VEC3"
    },
    "accessor_108": {
      "bufferView": "bufferView_0",
      "byteOffset": 6240,
      "byteStride": 0,
      "componentType": 5126,
      "count": 260,
      "max": [
        0.9847249984741211,
        0.5804259777069092
      ],
      "min": [
        0.6071529984474182,
        0.3022400140762329
      ],
      "type": "VEC2"
    },
    "accessor_48": {
      "bufferView": "bufferView_2",
      "byteOffset": 2112,
      "byteStride": 0,
      "componentType": 5123,
      "count": 1728,
      "type": "SCALAR"
    },
    "accessor_50": {
      "bufferView": "bufferView_0",
      "byteOffset": 8320,
      "byteStride": 0,
      "componentType": 5126,
      "count": 523,
      "max": [
        0.120107002556324,
        0.120107002556324,
        0.30523601174354553
      ],
      "min": [
        -0.120107002556324,
        -0.120107002556324,
        -0.07809799909591675
      ],
      "type": "VEC3"
    },
    "accessor_52": {
      "bufferView": "bufferView_0",
      "byteOffset": 14596,
      "byteStride": 0,
      "componentType": 5126,
      "count": 523,
      "max": [
        0.9811620116233826,
        0.9811620116233826,
        1
      ],
      "min": [
        -0.9811620116233826,
        -0.9811620116233826,
        -1
      ],
      "type": "VEC3"
    },
    "accessor_54": {
      "bufferView": "bufferView_0",
      "byteOffset": 20872,
      "byteStride": 0,
      "componentType": 5126,
      "count": 523,
      "max": [
        0.9943789839744568,
        0.9852942824363708
      ],
      "min": [
        0.4574050009250641,
        0.4435800313949585
      ],
      "type": "VEC2"
    },
    "accessor_75": {
      "bufferView": "bufferView_2",
      "byteOffset": 5568,
      "byteStride": 0,
      "componentType": 5123,
      "count": 1056,
      "type": "SCALAR"
    },
    "accessor_77": {
      "bufferView": "bufferView_0",
      "byteOffset": 25056,
      "byteStride": 0,
      "componentType": 5126,
      "count": 260,
      "max": [
        0.5040549635887146,
        0.06431350111961365,
        0.23426400125026703
      ],
      "min": [
        -0.5040549635887146,
        -0.06431350111961365,
        0.18821300566196442
      ],
      "type": "VEC3"
    },
    "accessor_79": {
      "bufferView": "bufferView_0",
      "byteOffset": 28176,
      "byteStride": 0,
      "componentType": 5126,
      "count": 260,
      "max": [
        0.9983590245246887,
        0.9994840025901794,
        0.9961829781532288
      ],
      "min": [
        -0.9983590245246887,
        -0.9994840025901794,
        -0.9970049858093262
      ],
      "type": "VEC3"
    },
    "accessor_81": {
      "bufferView": "bufferView_0",
      "byteOffset": 31296,
      "byteStride": 0,
      "componentType": 5126,
      "count": 260,
      "max": [
        0.9843940138816833,
        0.29101401567459106
      ],
      "min": [
        0.6696130037307739,
        0.014770984649658203
      ],
      "type": "VEC2"
    },
    "animAccessor_0": {
      "bufferView": "bufferView_1",
      "byteOffset": 0,
      "componentType": 5126,
      "count": 5,
      "type": "SCALAR",
      "byteStride": 0
    },
    "animAccessor_1": {
      "bufferView": "bufferView_1",
      "byteOffset": 20,
      "componentType": 5126,
      "count": 5,
      "type": "VEC4",
      "byteStride": 0
    },
    "animAccessor_2": {
      "bufferView": "bufferView_1",
      "byteOffset": 100,
      "componentType": 5126,
      "count": 5,
      "type": "VEC4",
      "byteStride": 0
    },
    "accessor": {
      "bufferView": "bufferView_2",
      "byteOffset": 7680,
      "byteStride": 0,
      "componentType": 5123,
      "count": 6396,
      "type": "SCALAR",
      "min": [
        0
      ],
      "max": [
        1690
      ]
    },
    "accessor_0": {
      "bufferView": "bufferView_0",
      "byteOffset": 33376,
      "byteStride": 0,
      "componentType": 5126,
      "count": 1691,
      "type": "VEC3",
      "min": [
        -1,
        -1,
        -1
      ],
      "max": [
        1,
        1,
        0.9999868273735046
      ]
    },
    "accessor_1": {
      "bufferView": "bufferView_0",
      "byteOffset": 53668,
      "byteStride": 0,
      "componentType": 5126,
      "count": 1691,
      "type": "VEC3",
      "min": [
        -0.9909049868583679,
        -0.03999999910593033,
        -1.1718999147415161
      ],
      "max": [
        0.9909049868583679,
        0.474309504032135,
        1.162274956703186
      ]
    },
    "accessor_2": {
      "bufferView": "bufferView_0",
      "byteOffset": 73960,
      "byteStride": 0,
      "componentType": 5126,
      "count": 1691,
      "type": "VEC2",
      "min": [
        0.0019293399527668953,
        0.010770022869110107
      ],
      "max": [
        0.7705060243606567,
        0.9980706572532654
      ]
    },
    "accessor_tangent": {
      "bufferView": "bufferView_0",
      "byteOffset": 87488,
      "byteStride": 0,
      "componentType": 5126,
      "count": 1691,
      "type": "VEC3",
      "min": [
        -1,
        -0.9999960660934448,
        -0.9884973764419556
      ],
      "max": [
        1,
        0.9999960660934448,
        0.9884973764419556
      ]
    },
    "accessor_bitangent": {
      "bufferView": "bufferView_0",
      "byteOffset": 107780,
      "byteStride": 0,
      "componentType": 5126,
      "count": 1691,
      "type": "VEC3",
      "min": [
        -0.9999999403953552,
        -0.9980179667472839,
        -1
      ],
      "max": [
        1,
        0.9980179667472839,
        0.9999974370002747
      ]
    }
  },
  "animations": {
    "animation_0": {
      "channels": [
        {
          "sampler": "animation_0_rotation_sampler",
          "target": {
            "id": "PropCounterClockwiseFront_low",
            "path": "rotation"
          }
        }
      ],
      "parameters": {
        "TIME": "animAccessor_0",
        "rotation": "animAccessor_1"
      },
      "samplers": {
        "animation_0_rotation_sampler": {
          "input": "TIME",
          "interpolation": "LINEAR",
          "output": "rotation"
        }
      }
    },
    "animation_1": {
      "channels": [
        {
          "sampler": "animation_1_rotation_sampler",
          "target": {
            "id": "PropClockwiseFront_low",
            "path": "rotation"
          }
        }
      ],
      "parameters": {
        "TIME": "animAccessor_0",
        "rotation": "animAccessor_2"
      },
      "samplers": {
        "animation_1_rotation_sampler": {
          "input": "TIME",
          "interpolation": "LINEAR",
          "output": "rotation"
        }
      }
    },
    "animation_2": {
      "channels": [
        {
          "sampler": "animation_2_rotation_sampler",
          "target": {
            "id": "PropClockwiseBack_low",
            "path": "rotation"
          }
        }
      ],
      "parameters": {
        "TIME": "animAccessor_0",
        "rotation": "animAccessor_2"
      },
      "samplers": {
        "animation_2_rotation_sampler": {
          "input": "TIME",
          "interpolation": "LINEAR",
          "output": "rotation"
        }
      }
    },
    "animation_3": {
      "channels": [
        {
          "sampler": "animation_3_rotation_sampler",
          "target": {
            "id": "PropCounterClockwiseBack_low",
            "path": "rotation"
          }
        }
      ],
      "parameters": {
        "TIME": "animAccessor_0",
        "rotation": "animAccessor_1"
      },
      "samplers": {
        "animation_3_rotation_sampler": {
          "input": "TIME",
          "interpolation": "LINEAR",
          "output": "rotation"
        }
      }
    }
  },
  "asset": {
    "copyright": "Copyright 2017 Analytical Graphics, Inc., CC-BY 4.0 https://creativecommons.org/licenses/by/4.0/ - Mesh and textures by Ed Mackey, shader code originally by Mohamad Moneimne, adapted for this model by Ed Mackey.",
    "generator": "collada2gltf@",
    "premultipliedAlpha": true,
    "profile": {
      "api": "WebGL",
      "version": "1.0.2"
    },
    "version": "1.0"
  },
  "bufferViews": {
    "bufferView_0": {
      "buffer": "CesiumDroneLowPoly2",
      "byteLength": 128072,
      "byteOffset": 0,
      "target": 34962
    },
    "bufferView_1": {
      "buffer": "CesiumDroneLowPoly2",
      "byteLength": 180,
      "byteOffset": 128072
    },
    "bufferView_2": {
      "buffer": "CesiumDroneLowPoly2",
      "byteLength": 20472,
      "byteOffset": 128252,
      "target": 34963
    }
  },
  "buffers": {
    "CesiumDroneLowPoly2": {
      "type": "arraybuffer",
      "byteLength": 148724,
      "uri": "data:application/octet-stream;base64,"
    }
  },
  "images": {
    "brdfLUT": {
      "name": "brdfLUT",
      "uri": "data:image/jpeg;base64,"
    },
    "BaseColor": {
      "name": "BaseColor",
      "uri": "data:image/jpeg;base64,"
    },
    "MetallicRoughness": {
      "name": "MetallicRoughness",
      "uri": "data:image/jpeg;base64,"
    },
    "AmbientOcclusion": {
      "name": "AmbientOcclusion",
      "uri": "data:image/jpeg;base64,"
    },
    "NormalMap": {
      "name": "NormalMap",
      "uri": "data:image/jpeg;base64,"
    }
  },
  "materials": {
    "CesiumDroneMaterial-effect": {
      "name": "CesiumDroneMaterial",
      "technique": "technique0",
      "values": {
        "matVal_brdfLUT": "texture_brdfLUT",
        "matVal_BaseColor": "texture_BaseColor",
        "matVal_MetallicRoughness": "texture_MetallicRoughness",
        "matVal_AmbientOcclusion": "texture_AmbientOcclusion",
        "matVal_NormalMap": "texture_NormalMap",
        "specular": [
          0.8,
          0.8,
          0.8,
          1
        ]
      }
    }
  },
  "meshes": {
    "Motor_low-mesh": {
      "name": "Motor_low",
      "primitives": [
        {
          "attributes": {
            "NORMAL": "accessor_52",
            "POSITION": "accessor_50",
            "TEXCOORD_0": "accessor_54",
            "TANGENT": "accessor_tangent",
            "BITANGENT": "accessor_bitangent"
          },
          "indices": "accessor_48",
          "material": "CesiumDroneMaterial-effect",
          "mode": 4
        }
      ]
    },
    "PropClockwise_low-mesh": {
      "name": "PropClockwise_low",
      "primitives": [
        {
          "attributes": {
            "NORMAL": "accessor_106",
            "POSITION": "accessor_104",
            "TEXCOORD_0": "accessor_108",
            "TANGENT": "accessor_tangent",
            "BITANGENT": "accessor_bitangent"
          },
          "indices": "accessor_102",
          "material": "CesiumDroneMaterial-effect",
          "mode": 4
        }
      ]
    },
    "PropCounterClockwise_low-mesh": {
      "name": "PropCounterClockwise_low",
      "primitives": [
        {
          "attributes": {
            "NORMAL": "accessor_79",
            "POSITION": "accessor_77",
            "TEXCOORD_0": "accessor_81",
            "TANGENT": "accessor_tangent",
            "BITANGENT": "accessor_bitangent"
          },
          "indices": "accessor_75",
          "material": "CesiumDroneMaterial-effect",
          "mode": 4
        }
      ]
    },
    "rootNode_mesh_0": {
      "name": "rootNode_mesh",
      "primitives": [
        {
          "attributes": {
            "NORMAL": "accessor_0",
            "POSITION": "accessor_1",
            "TEXCOORD_0": "accessor_2",
            "TANGENT": "accessor_tangent",
            "BITANGENT": "accessor_bitangent"
          },
        "rotation": [
            0.707,
            0,
            0,
            0.707
        ],
          "material": "CesiumDroneMaterial-effect",
          "mode": 4,
          "indices": "accessor"
        }
      ]
    }
  },
  "nodes": {
    "MotorBackLeft_low": {
      "children": [],
      "matrix": [
        -1,
        -8.979318677493353e-11,
        0,
        0,
        8.979318677493353e-11,
        -1,
        0,
        0,
        0,
        0,
        1,
        0,
        0.8500000238418579,
        0.8890000581741333,
        0,
        1
      ],
      "meshes": [
        "Motor_low-mesh"
      ],
      "name": "MotorBackLeft_low"
    },
    "MotorBackRight_low": {
      "children": [],
      "matrix": [
        1,
        0,
        0,
        0,
        0,
        1,
        0,
        0,
        0,
        0,
        1,
        0,
        -0.8500000238418579,
        0.8890000581741333,
        0,
        1
      ],
      "meshes": [
        "Motor_low-mesh"
      ],
      "name": "MotorBackRight_low"
    },
    "MotorFrontLeft_low": {
      "children": [],
      "matrix": [
        -1,
        -8.979318677493353e-11,
        0,
        0,
        8.979318677493353e-11,
        -1,
        0,
        0,
        0,
        0,
        1,
        0,
        0.8500000238418579,
        -1.0162299871444702,
        0,
        1
      ],
      "meshes": [
        "Motor_low-mesh"
      ],
      "name": "MotorFrontLeft_low"
    },
    "MotorFrontRight_low": {
      "children": [],
      "matrix": [
        1,
        0,
        0,
        0,
        0,
        1,
        0,
        0,
        0,
        0,
        1,
        0,
        -0.8500000238418579,
        -1.0162299871444702,
        0,
        1
      ],
      "meshes": [
        "Motor_low-mesh"
      ],
      "name": "MotorFrontRight_low"
    },
    "PropClockwiseBack_low": {
      "children": [],
      "meshes": [
        "PropClockwise_low-mesh"
      ],
      "name": "PropClockwiseBack_low",
      "rotation": [
        0,
        0,
        -0.5,
        0.8660253882408142
      ],
      "scale": [
        1,
        1,
        1
      ],
      "translation": [
        0.8500000238418579,
        0.8890000581741333,
        0
      ]
    },
    "PropClockwiseFront_low": {
      "children": [],
      "meshes": [
        "PropClockwise_low-mesh"
      ],
      "name": "PropClockwiseFront_low",
      "rotation": [
        0,
        0,
        -0.5,
        0.8660253882408142
      ],
      "scale": [
        1,
        1,
        1
      ],
      "translation": [
        -0.8500000238418579,
        -1.0162299871444702,
        0
      ]
    },
    "PropCounterClockwiseBack_low": {
      "children": [],
      "meshes": [
        "PropCounterClockwise_low-mesh"
      ],
      "name": "PropCounterClockwiseBack_low",
      "rotation": [
        0,
        0,
        0.5,
        0.8660253882408142
      ],
      "scale": [
        1,
        1,
        1
      ],
      "translation": [
        -0.8500000238418579,
        0.8890000581741333,
        0
      ]
    },
    "PropCounterClockwiseFront_low": {
      "children": [],
      "meshes": [
        "PropCounterClockwise_low-mesh"
      ],
      "name": "PropCounterClockwiseFront_low",
      "rotation": [
        0,
        0,
        0.5,
        0.8660253882408142
      ],
      "scale": [
        1,
        1,
        1
      ],
      "translation": [
        0.8500000238418579,
        -1.0162299871444702,
        0
      ]
    },
    "node_12": {
      "children": [
        "PropCounterClockwiseBack_low",
        "PropClockwiseBack_low",
        "MotorBackLeft_low",
        "MotorFrontLeft_low",
        "MotorBackRight_low",
        "PropClockwiseFront_low",
        "PropCounterClockwiseFront_low",
        "MotorFrontRight_low"
      ],
      "matrix": [
        1,
        0,
        0,
        0,
        0,
        0,
        -1,
        0,
        0,
        1,
        0,
        0,
        0,
        0,
        0,
        1
      ],
      "name": "Y_UP_Transform",
      "meshes": []
    },
    "rootNode": {
      "children": [
        "node_12"
      ],
      "meshes": [
        "rootNode_mesh_0"
      ],
        "scale": [
            1,
            1,
            1
        ],
        "rotation": [
            0,
            0.707,
            0,
            0.707
        ],
        "translation": [
            0,
	    0,
	    0
        ]
    }
  },
  "programs": {
    "program_0": {
      "attributes": [
        "a_position",
        "a_normal",
        "a_tangent",
        "a_texcoord0"
      ],
      "fragmentShader": "CesiumDroneFS",
      "vertexShader": "CesiumDroneVS"
    }
  },
  "samplers": {
    "sampler_0": {
      "magFilter": 9729,
      "minFilter": 9729,
      "wrapS": 10497,
      "wrapT": 10497
    }
  },
  "scene": "defaultScene",
  "scenes": {
    "defaultScene": {
      "nodes": [
        "rootNode"
      ]
    }
  },
  "shaders": {
    "CesiumDroneFS": {
      "type": 35632,
      "uri": "data:text/plain;base64,"
    },
    "CesiumDroneVS": {
      "type": 35633,
      "uri": "data:text/plain;base64,"
    }
  },
  "skins": {},
  "techniques": {
    "technique0": {
      "attributes": {
        "a_normal": "normal",
        "a_position": "position",
        "a_tangent": "tangent",
        "a_texcoord0": "texcoord0"
      },
      "parameters": {
        "matVal_brdfLUT": {
          "type": 35678
        },
        "matVal_BaseColor": {
          "type": 35678
        },
        "matVal_MetallicRoughness": {
          "type": 35678
        },
        "matVal_AmbientOcclusion": {
          "type": 35678
        },
        "matVal_NormalMap": {
          "type": 35678
        },
        "emission": {
          "type": 35666
        },
        "modelViewMatrix": {
          "semantic": "MODELVIEW",
          "type": 35676
        },
        "normal": {
          "semantic": "NORMAL",
          "type": 35665
        },
        "normalMatrix": {
          "semantic": "MODELVIEWINVERSETRANSPOSE",
          "type": 35675
        },
        "position": {
          "semantic": "POSITION",
          "type": 35665
        },
        "projectionMatrix": {
          "semantic": "PROJECTION",
          "type": 35676
        },
        "specular": {
          "type": 35666
        },
        "tangent": {
          "semantic": "TANGENT",
          "type": 35665
        },
        "texcoord0": {
          "semantic": "TEXCOORD_0",
          "type": 35664
        }
      },
      "program": "program_0",
      "states": {
        "enable": [
          2884,
          2929
        ]
      },
      "uniforms": {
        "u_brdfLUT": "matVal_brdfLUT",
        "u_BaseColorSampler": "matVal_BaseColor",
        "u_MetallicRoughnessSampler": "matVal_MetallicRoughness",
        "u_AmbientOcclusionSampler": "matVal_AmbientOcclusion",
        "u_NormalSampler": "matVal_NormalMap",
        "u_modelViewMatrix": "modelViewMatrix",
        "u_normalMatrix": "normalMatrix",
        "u_projectionMatrix": "projectionMatrix",
        "u_specular": "specular"
      }
    }
  },
  "textures": {
    "texture_brdfLUT": {
      "format": 6408,
      "internalFormat": 6408,
      "sampler": "sampler_0",
      "source": "brdfLUT",
      "target": 3553,
      "type": 5121
    },
    "texture_BaseColor": {
      "format": 6408,
      "internalFormat": 6408,
      "sampler": "sampler_0",
      "source": "BaseColor",
      "target": 3553,
      "type": 5121
    },
    "texture_MetallicRoughness": {
      "format": 6408,
      "internalFormat": 6408,
      "sampler": "sampler_0",
      "source": "MetallicRoughness",
      "target": 3553,
      "type": 5121
    },
    "texture_AmbientOcclusion": {
      "format": 6408,
      "internalFormat": 6408,
      "sampler": "sampler_0",
      "source": "AmbientOcclusion",
      "target": 3553,
      "type": 5121
    },
    "texture_NormalMap": {
      "format": 6408,
      "internalFormat": 6408,
      "sampler": "sampler_0",
      "source": "NormalMap",
      "target": 3553,
      "type": 5121
    }
  },
  "cameras": {},
  "extensionsUsed": []
}
