{
    "accessors": {
        "accessor_58": {
            "bufferView": "bufferView_73",
            "byteOffset": 0,
            "byteStride": 0,
            "componentType": 5123,
            "count": 74226,
            "type": "SCALAR"
        },
        "accessor_61": {
            "bufferView": "bufferView_73",
            "byteOffset": 148452,
            "byteStride": 0,
            "componentType": 5123,
            "count": 6,
            "type": "SCALAR"
        },
        "accessor_63": {
            "bufferView": "bufferView_74",
            "byteOffset": 0,
            "byteStride": 12,
            "componentType": 5126,
            "count": 15177,
            "max": [
                67.9257,
                36.2205,
                14.1448
            ],
            "min": [
                0,
                0,
                -0.0207
            ],
            "type": "VEC3"
        },
        "accessor_65": {
            "bufferView": "bufferView_74",
            "byteOffset": 182124,
            "byteStride": 12,
            "componentType": 5126,
            "count": 15177,
            "max": [
                1,
                1,
                1
            ],
            "min": [
                -1,
                -1,
                -1
            ],
            "type": "VEC3"
        },
        "accessor_67": {
            "bufferView": "bufferView_74",
            "byteOffset": 364248,
            "byteStride": 8,
            "componentType": 5126,
            "count": 15177,
            "max": [
                3.1495,
                11.3109
            ],
            "min": [
                -4.1687,
                -20.639
            ],
            "type": "VEC2"
        },
        "accessor_69": {
            "bufferView": "bufferView_74",
            "byteOffset": 485664,
            "byteStride": 12,
            "componentType": 5126,
            "count": 15177,
            "max": [
                1,
                1,
                1
            ],
            "min": [
                -1,
                -1,
                -1
            ],
            "type": "VEC3"
        },
        "accessor_71": {
            "bufferView": "bufferView_74",
            "byteOffset": 667788,
            "byteStride": 12,
            "componentType": 5126,
            "count": 15177,
            "max": [
                1,
                1,
                1
            ],
            "min": [
                -1,
                -1,
                -1
            ],
            "type": "VEC3"
        }
    },
    "animations": {},
    "asset": {
        "generator": "collada2gltf@d78daf1e7950e6c22fe6bec1d07965e8a302e90d",
        "premultipliedAlpha": true,
        "profile": {
            "api": "WebGL",
            "version": "1.0.2"
        },
        "version": 1
    },
    "bufferViews": {
        "bufferView_73": {
            "buffer": "\\WORKSPACE\\hami\\meDATA\\a\\taiyang",
            "byteLength": 148464,
            "byteOffset": 0,
            "target": 34963
        },
        "bufferView_74": {
            "buffer": "\\WORKSPACE\\hami\\meDATA\\a\\taiyang",
            "byteLength": 849912,
            "byteOffset": 148464,
            "target": 34962
        }
    },
    "buffers": {
        "\\WORKSPACE\\hami\\meDATA\\a\\taiyang": {
            "byteLength": 998376,
            "type": "arraybuffer",
            "uri": "data:application/octet-stream;base64,"
        }
    },
    "images": {
        "_______jpg": {
            "name": "_______jpg",
            "uri": "img.jpg"
        }
    },
    "materials": {
        "Standard_7": {
            "name": "Standard_7",
            "technique": "technique0",
            "values": {
                "ambient": "texture________jpg",
                "diffuse": "texture________jpg",
                "emission": [
                    0,
                    0,
                    0,
                    1
                ],
                "shininess": 10,
                "specular": [
                    0,
                    0,
                    0,
                    1
                ]
            }
        },
        "Standard_8": {
            "name": "Standard_8",
            "technique": "technique1",
            "values": {
                "ambient": [
                    0.898,
                    0.898,
                    0.898,
                    1
                ],
                "diffuse": [
                    0.898,
                    0.898,
                    0.898,
                    1
                ],
                "emission": [
                    0,
                    0,
                    0,
                    1
                ],
                "shininess": 10,
                "specular": [
                    0,
                    0,
                    0,
                    1
                ]
            }
        }
    },
    "meshes": {
        "geom-Sphere002": {
            "name": "Sphere002",
            "primitives": [
                {
                    "attributes": {
                        "NORMAL": "accessor_65",
                        "POSITION": "accessor_63",
                        "TEXBINORMAL": "accessor_71",
                        "TEXCOORD_0": "accessor_67",
                        "TEXTANGENT": "accessor_69"
                    },
                    "indices": "accessor_58",
                    "material": "Standard_8",
                    "mode": 4
                },
                {
                    "attributes": {
                        "NORMAL": "accessor_65",
                        "POSITION": "accessor_63",
                        "TEXBINORMAL": "accessor_71",
                        "TEXCOORD_0": "accessor_67",
                        "TEXTANGENT": "accessor_69"
                    },
                    "indices": "accessor_61",
                    "material": "Standard_7",
                    "mode": 4
                }
            ]
        }
    },
    "nodes": {
        "node-Sphere002": {
            "children": [],
            "matrix": [
                1,
                0,
                0,
                0,
                0,
                1,
                0,
                0,
                0,
                0,
                1,
                0,
                0,
                0,
                0,
                1
            ],
            "meshes": [
                "geom-Sphere002"
            ],
            "name": "Sphere002"
        },
        "node_0": {
            "children": [],
            "matrix": [
                1,
                0,
                0,
                0,
                0,
                1,
                0,
                0,
                0,
                0,
                1,
                0,
                0,
                0,
                0,
                1
            ],
            "name": "EnvironmentAmbientLight"
        },
        "node_2": {
            "children": [
                "node_0",
                "node-Sphere002"
            ],
            "matrix": [
                1,
                0,
                0,
                0,
                0,
                0,
                -1,
                0,
                0,
                1,
                0,
                0,
                0,
                0,
                0,
                1
            ],
            "name": "Y_UP_Transform"
        }
    },
    "programs": {
        "program_0": {
            "attributes": [
                "a_normal",
                "a_position",
                "a_texcoord0"
            ],
            "fragmentShader": "\\WORKSPACE\\hami\\meDATA\\a\\taiyang0FS",
            "vertexShader": "\\WORKSPACE\\hami\\meDATA\\a\\taiyang0VS"
        },
        "program_1": {
            "attributes": [
                "a_normal",
                "a_position"
            ],
            "fragmentShader": "\\WORKSPACE\\hami\\meDATA\\a\\taiyang1FS",
            "vertexShader": "\\WORKSPACE\\hami\\meDATA\\a\\taiyang1VS"
        }
    },
    "samplers": {
        "sampler_0": {
            "magFilter": 9729,
            "minFilter": 9729,
            "wrapS": 10497,
            "wrapT": 10497
        }
    },
    "scene": "defaultScene",
    "scenes": {
        "defaultScene": {
            "nodes": [
                "node_2"
            ]
        }
    },
    "shaders": {
        "\\WORKSPACE\\hami\\meDATA\\a\\taiyang0FS": {
            "type": 35632,
            "uri": "data:text/plain;base64,"
        },
        "\\WORKSPACE\\hami\\meDATA\\a\\taiyang0VS": {
            "type": 35633,
            "uri": "data:text/plain;base64,"
        },
        "\\WORKSPACE\\hami\\meDATA\\a\\taiyang1FS": {
            "type": 35632,
            "uri": "data:text/plain;base64,"
        },
        "\\WORKSPACE\\hami\\meDATA\\a\\taiyang1VS": {
            "type": 35633,
            "uri": "data:text/plain;base64,"
        }
    },
    "skins": {},
    "techniques": {
        "technique0": {
            "attributes": {
                "a_normal": "normal",
                "a_position": "position",
                "a_texcoord0": "texcoord0"
            },
            "parameters": {
                "ambient": {
                    "type": 35678
                },
                "diffuse": {
                    "type": 35678
                },
                "emission": {
                    "type": 35666
                },
                "modelViewMatrix": {
                    "semantic": "MODELVIEW",
                    "type": 35676
                },
                "normal": {
                    "semantic": "NORMAL",
                    "type": 35665
                },
                "normalMatrix": {
                    "semantic": "MODELVIEWINVERSETRANSPOSE",
                    "type": 35675
                },
                "position": {
                    "semantic": "POSITION",
                    "type": 35665
                },
                "projectionMatrix": {
                    "semantic": "PROJECTION",
                    "type": 35676
                },
                "shininess": {
                    "type": 5126
                },
                "specular": {
                    "type": 35666
                },
                "texcoord0": {
                    "semantic": "TEXCOORD_0",
                    "type": 35664
                }
            },
            "program": "program_0",
            "states": {
                "enable": [
                    2929,
                    2884
                ]
            },
            "uniforms": {
                "u_ambient": "ambient",
                "u_diffuse": "diffuse",
                "u_emission": "emission",
                "u_modelViewMatrix": "modelViewMatrix",
                "u_normalMatrix": "normalMatrix",
                "u_projectionMatrix": "projectionMatrix",
                "u_shininess": "shininess",
                "u_specular": "specular"
            }
        },
        "technique1": {
            "attributes": {
                "a_normal": "normal",
                "a_position": "position"
            },
            "parameters": {
                "ambient": {
                    "type": 35666
                },
                "diffuse": {
                    "type": 35666
                },
                "emission": {
                    "type": 35666
                },
                "modelViewMatrix": {
                    "semantic": "MODELVIEW",
                    "type": 35676
                },
                "normal": {
                    "semantic": "NORMAL",
                    "type": 35665
                },
                "normalMatrix": {
                    "semantic": "MODELVIEWINVERSETRANSPOSE",
                    "type": 35675
                },
                "position": {
                    "semantic": "POSITION",
                    "type": 35665
                },
                "projectionMatrix": {
                    "semantic": "PROJECTION",
                    "type": 35676
                },
                "shininess": {
                    "type": 5126
                },
                "specular": {
                    "type": 35666
                }
            },
            "program": "program_1",
            "states": {
                "enable": [
                    2929,
                    2884
                ]
            },
            "uniforms": {
                "u_ambient": "ambient",
                "u_diffuse": "diffuse",
                "u_emission": "emission",
                "u_modelViewMatrix": "modelViewMatrix",
                "u_normalMatrix": "normalMatrix",
                "u_projectionMatrix": "projectionMatrix",
                "u_shininess": "shininess",
                "u_specular": "specular"
            }
        }
    },
    "textures": {
        "texture________jpg": {
            "format": 6408,
            "internalFormat": 6408,
            "sampler": "sampler_0",
            "source": "_______jpg",
            "target": 3553,
            "type": 5121
        }
    }
}